<?xml version="1.0" encoding="utf-8"?>
<!-- Generator: Adobe Illustrator 24.1.0, SVG Export Plug-In . SVG Version: 6.00 Build 0)  -->
<svg version="1.1" id="Layer_1" xmlns="http://www.w3.org/2000/svg" xmlns:xlink="http://www.w3.org/1999/xlink" x="0px" y="0px"
	 width="185px" height="185px" viewBox="0 0 185 185" style="enable-background:new 0 0 185 185;" xml:space="preserve">
<style type="text/css">
	.st0{enable-background:new    ;}
	.st1{clip-path:url(#SVGID_2_);fill:#2C2F35;}
</style>
<g class="st0">
	<g>
		<defs>
			<rect id="SVGID_1_" x="2.2" y="0.9" width="180.5" height="183.2"/>
		</defs>
		<clipPath id="SVGID_2_">
			<use xlink:href="#SVGID_1_"  style="overflow:visible;"/>
		</clipPath>
		<path class="st1" d="M138,38.2c10.5,0,16.2,9.9,16.2,26.3c0,16.4-5.7,26.2-16.2,26.2c-10.5,0-16-9.8-16-26.2
			C121.9,48.2,127.5,38.2,138,38.2 M138,103.6c19.4,0,31-15.5,31-39.1c0-23.6-11.6-39.1-31-39.1c-19.4,0-31,15.5-31,39.1
			C107,88.1,118.5,103.6,138,103.6"/>
		<path class="st1" d="M99.5,85.8h-55v12.8h39.7c-16.3,21-28.9,43.8-31.4,63.6h15c1.5-17.8,14.7-40.6,31.8-63.6V85.8z"/>
		<path class="st1" d="M147.6,154.4c-3.6,2.8-7.1,6-10,9.8c-2.9-3.8-6.3-7-10-9.8c-9.4-7.4-19.6-12.7-19.6-22.3
			c0-7,3.7-11.7,10.4-11.7c7.5,0,12,5.5,12.2,15.2h0h13.9h0c0.2-9.7,4.7-15.2,12.2-15.2c6.7,0,10.4,4.7,10.4,11.7
			C167.3,141.8,157,147,147.6,154.4 M157.2,107.8c-8.7,0-15.2,2.6-19.6,7.2c-4.4-4.6-10.9-7.2-19.6-7.2c-16.3,0-25.4,11-25.4,23.9
			c0,14.1,9.6,20.7,18.8,26.9c5.8,3.7,12.9,9.7,15.1,13.3c3.9,6.6,4.2,12.2,4.2,12.2h14c0,0,0.3-5.6,4.2-12.2
			c2.2-3.6,9.3-9.6,15.1-13.3c9.2-6.1,18.8-12.8,18.8-26.9C182.7,118.8,173.5,107.8,157.2,107.8"/>
		<path class="st1" d="M85.8,77.5h13.8V1.1H88.2c0,0,0,0,0,0h0c-0.5,7.7-9.2,13.8-20,13.8v10.8h17.6V77.5z"/>
		<path class="st1" d="M29.8,165.7v-5.5l-26.6,9.4v5.1l26.6,9.4v-5.5l-5.8-1.9v-9L29.8,165.7z M19.2,175.1l-8.6-2.9l8.6-2.9V175.1z
			 M29.8,158v-5H19.3c-2.5,0-4.2-1.5-4.2-3.7c0-2.1,1.7-3.4,4-3.4h10.7v-5H17.9c-4.4,0-7.5,2.6-7.5,6.7c0,2.4,1.1,4.4,3,5.4h-2.7v5
			H29.8z M30.1,129.6c0-2.1-0.9-3.9-2.4-4.9h2.1v-4.9H2.3v4.9h10.3c-1.4,1-2.3,2.7-2.3,5c0,5.2,3.9,8.4,9.9,8.4
			C26.2,138,30.1,134.8,30.1,129.6 M25.5,128.8c0,2.6-2.1,4.4-5.3,4.4c-3.2,0-5.4-1.7-5.4-4.4c0-2.6,2.1-4.4,5.4-4.4
			C23.4,124.4,25.5,126.1,25.5,128.8 M23.3,103.8c1.6,0.4,2.5,1.7,2.5,3.7c0,2.5-1.7,4.1-4.4,4.4V99.1c-0.4,0-1-0.1-1.7-0.1
			c-4.4,0-9.3,2.5-9.3,8.8c0,6.1,5,8.8,9.8,8.8c4.8,0,9.9-3.1,9.9-9.2c0-4.4-2.7-7.8-6.8-8.5V103.8z M14.2,107.9
			c0-2.4,1.7-3.8,3.8-3.9v7.9C15.4,111.4,14.2,110.1,14.2,107.9 M15.1,84.5h-4.4v2c0,2.2,0.8,3.5,3.2,4.5h-3.2v5h19.1v-5h-9.3
			c-3.3,0-5.4-1.1-5.4-3.5V84.5z M29.8,77.2H2.3v4.9h27.4V77.2z M23.3,61.3c1.6,0.4,2.5,1.7,2.5,3.7c0,2.5-1.7,4.1-4.4,4.4V56.6
			c-0.4,0-1-0.1-1.7-0.1c-4.4,0-9.3,2.5-9.3,8.8c0,6.1,5,8.8,9.8,8.8c4.8,0,9.9-3.1,9.9-9.2c0-4.4-2.7-7.8-6.8-8.5V61.3z M14.2,65.3
			c0-2.4,1.7-3.8,3.8-3.9v7.9C15.4,68.9,14.2,67.6,14.2,65.3 M30.1,45.2c0-4.6-3.2-8.3-7.4-8.9v5c1.7,0.4,2.9,1.8,2.9,3.6
			c0,2.7-2.2,4.3-5.3,4.3c-3.1,0-5.4-1.6-5.4-4.2c0-1.8,1.3-3.3,3-3.6v-5c-4.4,0.3-7.5,4-7.5,8.7c0,5.5,4.3,9.2,9.9,9.2
			C25.8,54.4,30.1,50.8,30.1,45.2 M29.8,33.4v-4.9H19.3c-2.5,0-4.2-1.5-4.2-3.7c0-2.1,1.7-3.5,4-3.5h10.7v-4.9H17.9
			c-4.4,0-7.5,2.6-7.5,6.6c0,2.5,1.1,4.4,3,5.5h-11v4.9H29.8z M5,10.8h5.7v3.4h4.4v-3.4h7.8c4.4,0,6.9-2.7,6.9-6.8V1.1H25v2.3
			c0,1.6-0.9,2.5-2.7,2.5h-7.2V1.1h-4.4v4.8H5V10.8z"/>
	</g>
</g>
</svg>
